<svg width="18" height="18" viewBox="0 0 18 18" fill="none" xmlns="http://www.w3.org/2000/svg">
<path fill-rule="evenodd" clip-rule="evenodd" d="M15.6043 1.05426C16.0924 0.566101 16.8839 0.566103 17.372 1.05426C17.8602 1.54242 17.8602 2.33387 17.372 2.82203L11.1078 9.08624L17.372 15.3504C17.8602 15.8386 17.8602 16.6301 17.372 17.1182C16.8839 17.6064 16.0924 17.6064 15.6043 17.1182L9.34001 10.854L3.07578 17.1182C2.58762 17.6064 1.79616 17.6064 1.30801 17.1182C0.819855 16.6301 0.819856 15.8386 1.30801 15.3504L7.57224 9.08624L1.30801 2.82203C0.819857 2.33387 0.819855 1.54242 1.30801 1.05426C1.79616 0.566103 2.58762 0.566101 3.07578 1.05426L9.34001 7.31847L15.6043 1.05426Z" fill="#666666" fill-opacity="0.4"/>
</svg>
