<svg width="15" height="15" viewBox="0 0 15 15" fill="none" xmlns="http://www.w3.org/2000/svg">
<g clip-path="url(#clip0_60_15888)">
<path d="M2.98512 4.14197H3.49851C3.79707 4.14197 4.03957 4.38447 4.03957 4.68302V10.2249C4.03957 10.8067 3.56716 11.2794 2.98512 11.2794C2.40331 11.2794 1.93066 10.807 1.93066 10.2249V5.19642C1.93066 4.61462 2.40307 4.14197 2.98512 4.14197Z" fill="#666666" fill-opacity="0.4"/>
<path d="M11.0847 4.14198H7.24148V1.84663C7.24148 1.13938 6.66808 0.565979 5.96083 0.565979C5.25358 0.565979 4.68018 1.13938 4.68018 1.84663V5.21668C4.68018 5.24187 4.68116 5.26681 4.68264 5.2915C4.68116 5.31694 4.68018 5.34237 4.68018 5.36805V9.99801C4.68018 10.7053 5.25358 11.2787 5.96083 11.2787H10.0603C10.5666 11.2787 11.0074 10.8922 11.1274 10.3432L12.1517 5.65871C12.3206 4.88627 11.7966 4.14148 11.0847 4.14148V4.14198Z" fill="#666666" fill-opacity="0.4"/>
</g>
<defs>
<clipPath id="clip0_60_15888">
<rect width="14" height="14" fill="white" transform="translate(0.0571289 0.166992)"/>
</clipPath>
</defs>
</svg>
