<svg width="45" height="47" viewBox="0 0 45 47" fill="none" xmlns="http://www.w3.org/2000/svg">
<path fill-rule="evenodd" clip-rule="evenodd" d="M18.3606 11.6946C12.1715 11.6946 7.1543 16.7119 7.1543 22.9009C7.1543 29.09 12.1715 34.1072 18.3606 34.1072H26.6395C32.8285 34.1072 37.8458 29.09 37.8458 22.9009C37.8458 16.7119 32.8285 11.6946 26.6395 11.6946H18.3606ZM15.8502 24.7173C16.834 24.7173 17.6316 23.9041 17.6316 22.9009C17.6316 21.8978 16.834 21.0846 15.8502 21.0846C14.8664 21.0846 14.0688 21.8978 14.0688 22.9009C14.0688 23.9041 14.8664 24.7173 15.8502 24.7173ZM22.5001 24.7173C23.4839 24.7173 24.2815 23.9041 24.2815 22.9009C24.2815 21.8978 23.4839 21.0846 22.5001 21.0846C21.5162 21.0846 20.7187 21.8978 20.7187 22.9009C20.7187 23.9041 21.5162 24.7173 22.5001 24.7173ZM30.9306 22.9009C30.9306 23.9041 30.133 24.7173 29.1492 24.7173C28.1654 24.7173 27.3678 23.9041 27.3678 22.9009C27.3678 21.8978 28.1654 21.0846 29.1492 21.0846C30.133 21.0846 30.9306 21.8978 30.9306 22.9009Z" fill="white"/>
<path fill-rule="evenodd" clip-rule="evenodd" d="M16.0474 27.5127C16.8696 28.351 20.9994 25.4993 20.1772 26.3376L10.9377 35.7584C10.1156 36.5967 8.78256 36.5967 7.96039 35.7584C7.13821 34.9201 7.1382 33.561 7.96037 32.7227L14.2225 26.3375C15.0447 25.4992 15.2252 26.6744 16.0474 27.5127Z" fill="white"/>
</svg>
