<svg width="40" height="39" viewBox="0 0 40 39" fill="none" xmlns="http://www.w3.org/2000/svg">
<path fill-rule="evenodd" clip-rule="evenodd" d="M7.80626 15.5754L9.1425 16.9116L10.087 15.9672L8.75072 14.6309L23.0438 0.337829L27.2147 4.50874L27.2146 4.50884C25.0902 6.63331 25.0902 10.0778 27.2146 12.2022C29.3391 14.3267 32.7836 14.3267 34.9081 12.2022L34.9081 12.2022L39.0793 16.3734L16.5277 38.925L12.3565 34.7538C14.4809 32.6293 14.4808 29.1849 12.3564 27.0605C10.2319 24.936 6.78756 24.936 4.66308 27.0604L0.492188 22.8895L7.80626 15.5754ZM11.8151 19.5842L14.4877 22.2568L15.4321 21.3123L12.7595 18.6398L11.8151 19.5842ZM17.1603 24.9294L19.8328 27.602L20.7773 26.6575L18.1047 23.9849L17.1603 24.9294ZM22.5054 30.2746L23.8417 31.6109L24.7862 30.6664L23.4499 29.3301L22.5054 30.2746Z" fill="white"/>
</svg>
